<svg width="48" height="49" viewBox="0 0 48 49" fill="none" xmlns="http://www.w3.org/2000/svg">
<rect y="0.699463" width="48" height="48" rx="8" fill="#F5F7FA"/>
<g clip-path="url(#clip0_22_770)">
<path d="M38.4375 12.39C38.4375 12.856 38.8199 13.2338 39.2917 13.2338H40.1458C40.6176 13.2338 41 12.856 41 12.39C41 11.924 40.6176 11.5463 40.1458 11.5463H39.2917C38.8199 11.5463 38.4375 11.924 38.4375 12.39Z" fill="#212326"/>
<path d="M13.6667 38.5463H17.8161L16.6081 37.353C16.2877 37.0366 15.8532 36.8588 15.4001 36.8588H13.6667C7.06225 36.8588 1.70833 31.5701 1.70833 25.0463C1.70833 18.5224 7.06225 13.2338 13.6667 13.2338H27.3333C33.9378 13.2338 39.2917 18.5224 39.2917 25.0463C39.2917 31.5701 33.9378 36.8588 27.3333 36.8588H22.2209C21.5413 36.8588 20.8895 36.5921 20.4089 36.1174L18.9937 34.7194C18.1928 33.9283 17.1064 33.4838 15.9737 33.4838H13.6667C8.94921 33.4838 5.125 29.7062 5.125 25.0463C5.125 20.3863 8.94921 16.6088 13.6667 16.6088H27.3333C32.0508 16.6088 35.875 20.3863 35.875 25.0463C35.875 29.7062 32.0508 33.4838 27.3333 33.4838H24.0507C23.371 33.4838 22.7193 33.2171 22.2387 32.7424L20.8234 31.3444C20.0225 30.5533 18.9362 30.1088 17.8035 30.1088H13.6667C10.8362 30.1088 8.54167 27.8422 8.54167 25.0463C8.54167 22.2503 10.8362 19.9838 13.6667 19.9838H27.3333C30.1638 19.9838 32.4583 22.2503 32.4583 25.0463C32.4583 27.8081 30.2194 30.0534 27.4367 30.1078L27.4361 30.1088H26.1861C25.5064 30.1088 24.8547 29.8421 24.3741 29.3674L22.9588 27.9694C22.3017 27.3202 21.4524 26.9045 20.5429 26.7762L20.5 26.7338H13.6667C12.7232 26.7338 11.9583 25.9782 11.9583 25.0463C11.9583 24.1143 12.7232 23.3588 13.6667 23.3588H27.3333C28.2768 23.3588 29.0417 24.1143 29.0417 25.0463C29.0417 25.9782 28.2768 26.7338 27.3333 26.7338H23.9167L25.1247 27.927C25.445 28.2435 25.8795 28.4213 26.3326 28.4213H27.3333C29.2203 28.4213 30.75 26.9102 30.75 25.0463C30.75 23.1823 29.2203 21.6713 27.3333 21.6713H13.6667C11.7797 21.6713 10.25 23.1823 10.25 25.0463C10.25 26.9102 11.7797 28.4213 13.6667 28.4213H19.9389C20.6186 28.4213 21.2703 28.688 21.7509 29.1626L23.1662 30.5606C23.9671 31.3518 25.0534 31.7963 26.1861 31.7963H27.7604V31.7833C31.3354 31.5655 34.1667 28.6325 34.1667 25.0463C34.1667 21.3184 31.1072 18.2963 27.3333 18.2963H13.6667C9.89275 18.2963 6.83333 21.3184 6.83333 25.0463C6.83333 28.7742 9.89275 31.7963 13.6667 31.7963H17.8035C18.4831 31.7963 19.1349 32.063 19.6155 32.5376L21.0307 33.9356C21.8317 34.7268 22.918 35.1713 24.0507 35.1713H27.3333C32.9943 35.1713 37.5833 30.6382 37.5833 25.0463C37.5833 19.4544 32.9943 14.9213 27.3333 14.9213H13.6667C8.00573 14.9213 3.41667 19.4544 3.41667 25.0463C3.41667 30.6382 8.00573 35.1713 13.6667 35.1713H15.9737C16.6534 35.1713 17.3051 35.438 17.7857 35.9126L19.201 37.3106C20.0019 38.1018 21.0882 38.5463 22.2209 38.5463H27.3333C34.8812 38.5463 41 32.5021 41 25.0463C41 17.5904 34.8812 11.5463 27.3333 11.5463L13.6667 11.5463C6.11877 11.5463 -6.59857e-07 17.5904 0 25.0463C6.59857e-07 32.5021 6.11878 38.5463 13.6667 38.5463Z" fill="#212326"/>
</g>
<defs>
<clipPath id="clip0_22_770">
<rect width="41" height="27" fill="white" transform="translate(0 11.5463)"/>
</clipPath>
</defs>
</svg>
