<svg width="52" height="49" viewBox="0 0 52 49" fill="none" xmlns="http://www.w3.org/2000/svg">
<rect y="0.699463" width="48" height="48" rx="8" fill="#F5F7FA"/>
<g clip-path="url(#clip0_22_771)">
<path d="M12.3431 14.5463C10.3124 14.5463 8.36487 15.353 6.92893 16.7889L2.24264 21.4752C0.8067 22.9111 0 24.8587 0 26.8894C0 31.1182 3.42809 34.5463 7.65687 34.5463C9.6876 34.5463 11.6351 33.7395 13.0711 32.3036L16.3126 29.0621C16.3126 29.062 16.3127 29.0621 16.3126 29.0621L25.7573 19.6173C26.4431 18.9315 27.3733 18.5463 28.3431 18.5463C29.9669 18.5463 31.3435 19.6045 31.8207 21.069L34.8015 18.0882C33.4417 15.9585 31.0573 14.5463 28.3431 14.5463C26.3124 14.5463 24.3649 15.353 22.9289 16.7889L10.2427 29.4752C9.55687 30.161 8.62673 30.5463 7.65687 30.5463C5.63723 30.5463 4 28.9091 4 26.8894C4 25.9195 4.38527 24.9894 5.07107 24.3036L9.75733 19.6173C10.4431 18.9315 11.3733 18.5463 12.3431 18.5463C13.9669 18.5463 15.3435 19.6046 15.8207 21.0691L18.8015 18.0883C17.4417 15.9585 15.0574 14.5463 12.3431 14.5463Z" fill="#394149"/>
<path d="M26.2427 29.4752C25.5569 30.161 24.6268 30.5463 23.6569 30.5463C22.0334 30.5463 20.6569 29.4883 20.1795 28.0241L17.1989 31.0047C18.5587 33.1342 20.9429 34.5463 23.6569 34.5463C25.6877 34.5463 27.6352 33.7395 29.0711 32.3036L41.7574 19.6173C42.4432 18.9315 43.3733 18.5463 44.3432 18.5463C46.3629 18.5463 48 20.1835 48 22.2031C48 23.173 47.6148 24.1031 46.929 24.7889L42.2427 29.4752C41.5569 30.161 40.6268 30.5463 39.6569 30.5463C38.0332 30.5463 36.6567 29.4881 36.1794 28.0237L33.1987 31.0045C34.5585 33.1341 36.9428 34.5463 39.6569 34.5463C41.6876 34.5463 43.6352 33.7395 45.0711 32.3036L49.7574 27.6173C51.1933 26.1814 52 24.2339 52 22.2031C52 17.9744 48.572 14.5463 44.3432 14.5463C42.3125 14.5463 40.3649 15.353 38.929 16.7889L26.2427 29.4752Z" fill="#394149"/>
</g>
<defs>
<clipPath id="clip0_22_771">
<rect width="52" height="20" fill="white" transform="translate(0 14.5463)"/>
</clipPath>
</defs>
</svg>
