<svg width="48" height="49" viewBox="0 0 48 49" fill="none" xmlns="http://www.w3.org/2000/svg">
<rect y="0.699463" width="48" height="48" rx="8" fill="#F5F7FA"/>
<g clip-path="url(#clip0_22_769)">
<path d="M43.9965 14.111C43.9965 14.1448 43.9965 14.1871 43.9877 14.2124C43.9437 14.5421 43.9437 14.8718 43.9701 15.2099C43.9877 15.2945 44.0053 15.379 44.0758 15.4466C44.1903 15.5734 44.3664 15.5481 44.4369 15.3959C44.4722 15.3198 44.4722 15.2437 44.4545 15.1677C44.3664 14.8464 44.3488 14.5083 44.34 14.1786C44.34 14.1617 44.34 14.1363 44.34 14.111C44.4369 14.1025 44.525 14.0941 44.6042 14.0941C44.6659 14.0856 44.7188 14.0772 44.7628 14.0518C44.8949 13.9842 44.8949 13.8405 44.754 13.7728C44.7011 13.7475 44.6307 13.739 44.569 13.739C44.3488 13.7475 44.1287 13.7475 43.9084 13.7475C43.8292 13.7475 43.7499 13.7559 43.6706 13.7644C43.6266 13.7728 43.5737 13.7728 43.5385 13.7982C43.4768 13.8235 43.4417 13.8658 43.4417 13.925C43.4504 13.9842 43.4768 14.018 43.5385 14.0433C43.5737 14.0687 43.6178 14.0772 43.6618 14.0772C43.7675 14.0856 43.882 14.1025 43.9965 14.111ZM46.4186 14.4998C46.4186 14.5083 46.4274 14.5167 46.4274 14.5167C46.4627 14.745 46.4979 14.9648 46.5243 15.1846C46.5332 15.2606 46.542 15.3283 46.5948 15.3874C46.7093 15.5311 46.8855 15.5142 46.9647 15.3621C47 15.286 47.0087 15.2099 46.9912 15.1254C46.9383 14.8718 46.9119 14.6182 46.859 14.373C46.8238 14.2209 46.7798 14.0772 46.7357 13.9419C46.7093 13.8574 46.6477 13.7982 46.542 13.7897C46.4363 13.7728 46.357 13.8235 46.3129 13.8996C46.2601 13.9673 46.2161 14.0349 46.1808 14.111C46.1192 14.2462 46.0663 14.3815 45.9959 14.5083C45.987 14.5421 45.9782 14.5675 45.9606 14.5928C45.9519 14.5759 45.9431 14.5675 45.9431 14.5675C45.8285 14.3561 45.7228 14.1448 45.6083 13.9419C45.5907 13.925 45.5819 13.9081 45.5731 13.8912C45.5203 13.8151 45.4586 13.7728 45.3617 13.7728C45.2736 13.7813 45.2031 13.832 45.1592 13.9081C45.1415 13.9419 45.1415 13.9673 45.1327 14.0011C45.0975 14.2716 45.0534 14.5421 45.0182 14.8126C45.0006 14.9648 44.9918 15.1169 44.9918 15.2691C44.983 15.3029 44.9918 15.3452 45.0094 15.379C45.027 15.4466 45.0799 15.4889 45.1503 15.4973C45.2384 15.5058 45.3 15.4804 45.3265 15.4128C45.3529 15.3621 45.3617 15.3198 45.3705 15.2775C45.4058 15.1254 45.4322 14.9817 45.4586 14.838C45.4762 14.7534 45.485 14.6858 45.5115 14.5928C45.5291 14.6266 45.5466 14.652 45.5643 14.6773C45.6435 14.7788 45.7228 14.8802 45.8197 14.9648C45.9166 15.0324 45.9959 15.0239 46.0751 14.9479C46.0928 14.931 46.1016 14.9225 46.1192 14.9056C46.1985 14.7872 46.2954 14.6689 46.3746 14.5505C46.3922 14.5336 46.401 14.5167 46.4186 14.4998Z" fill="#3A3B7B"/>
<path d="M26.1244 14.2771C26.0632 14.4377 26.0515 14.5535 26.0798 14.6497C26.111 14.7805 26.192 14.8233 26.302 14.79C27.3366 14.5445 29.6051 15.2414 30.445 15.4357C30.6431 15.4765 30.8042 15.231 30.6691 15.011C30.4718 14.7979 28.2043 13.8856 27.3391 13.8359C26.9999 13.8175 26.3936 13.734 26.1244 14.2771Z" fill="#3A3B7B"/>
<path d="M34.9904 11.3239C35.1006 11.385 35.1622 11.4432 35.1927 11.5083C35.238 11.5937 35.2141 11.6528 35.1379 11.6829C34.4541 12.0033 33.5441 13.3824 33.1768 13.858C33.0877 13.9674 32.8823 13.9038 32.8513 13.7239C32.8577 13.5204 33.6643 12.0238 34.1145 11.6162C34.2915 11.457 34.5837 11.1448 34.9904 11.3239Z" fill="#3A3B7B"/>
<path d="M29.5445 10.645C29.6769 10.5492 29.8146 10.5156 29.8849 10.5779C30.9167 11.4248 31.4638 12.7659 31.8026 13.9937C31.8154 14.0223 31.8162 14.0633 31.806 14.1062C31.8017 14.1428 31.7739 14.1814 31.7296 14.2113C31.6824 14.2444 31.6417 14.2544 31.6225 14.226C31.1703 13.6356 28.5875 11.3388 29.5445 10.645Z" fill="#3A3B7B"/>
<path d="M7.69524 25.3281C7.94253 25.1514 8.21137 25.0043 8.49586 24.8901C8.7935 24.8084 9.11075 24.8219 9.39966 24.9287C9.68851 25.0355 9.93338 25.2296 10.0971 25.4818C10.2435 25.7333 10.3008 26.0237 10.2604 26.3092C10.2199 26.5946 10.084 26.8598 9.87289 27.0647C9.70926 27.2308 9.52348 27.3755 9.3205 27.495C8.41582 28.056 7.50308 28.5862 6.59039 29.1471C6.40363 29.2875 6.20551 29.4134 5.99793 29.5236C5.68217 29.6748 5.32132 29.7152 4.97776 29.6381C4.6342 29.5609 4.32955 29.3709 4.11648 29.101C3.95719 28.9099 3.82277 28.7009 3.71616 28.4786C2.8515 26.7343 1.95481 24.9977 1.12217 23.2226C0.737866 22.4542 0.425627 21.5705 0.121393 20.7176C-0.010233 20.4698 -0.0359366 20.1825 0.0497553 19.9167C0.135447 19.651 0.325774 19.4278 0.580249 19.2947C0.834727 19.1615 1.13327 19.129 1.4124 19.2039C1.69152 19.2787 1.92921 19.4552 2.0749 19.6956C2.52271 20.2668 2.91911 20.8735 3.25981 21.5091C4.12448 23.0459 4.94912 24.5827 5.78176 26.0734C5.83024 26.1558 5.8837 26.2353 5.94188 26.3116C6.56859 26.0587 7.15803 25.7281 7.69524 25.3281Z" fill="#3A3B7B"/>
<path d="M16.6354 24.792C14.6579 27.0127 11.3433 26.4517 9.67801 23.5932C8.49308 21.5646 8.28493 18.2143 10.8629 16.1012C11.4135 15.6588 12.0717 15.3574 12.7764 15.2252C13.6404 15.1063 14.5214 15.2526 15.2936 15.6432C16.0657 16.0337 16.6895 16.6486 17.0757 17.3998C18.4848 19.8588 18.2847 22.9939 16.6354 24.792ZM15.8347 19.6129C15.6247 19.0086 15.2032 18.4927 14.6418 18.1528C14.3242 17.9355 13.9382 17.8299 13.5489 17.8537C13.1595 17.8775 12.7906 18.0293 12.5042 18.2835C11.3593 19.2594 11.1191 21.5723 11.9517 22.9478C12.0579 23.1721 12.2137 23.3714 12.4085 23.5318C12.6033 23.6922 12.8323 23.8099 13.0793 23.8765C13.3264 23.9431 13.5857 23.9571 13.839 23.9175C14.0923 23.8778 14.3335 23.7855 14.5458 23.647C15.1664 23.1852 15.6217 22.5493 15.8484 21.8277C16.0751 21.1061 16.062 20.3346 15.8108 19.6206L15.8347 19.6129Z" fill="#3A3B7B"/>
<path d="M24.7055 20.5811C24.5031 20.6228 24.294 20.6254 24.0904 20.5884C23.887 20.5514 23.6932 20.4758 23.5207 20.3659C23.3697 20.283 23.2397 20.1691 23.14 20.0322C23.0405 19.8953 22.9737 19.7389 22.9446 19.5743C22.9155 19.4097 22.9248 19.241 22.9718 19.0802C23.0188 18.9195 23.1024 18.7707 23.2164 18.6447C23.4152 18.3913 23.6973 18.2099 24.0171 18.1298C24.8518 17.8973 25.7112 17.7555 26.579 17.7072C26.7697 17.6859 26.9629 17.7014 27.1472 17.7528C27.3316 17.8042 27.5033 17.8903 27.6525 18.0063C27.8016 18.1223 27.9252 18.2657 28.0158 18.4281C28.1064 18.5905 28.1623 18.7686 28.1802 18.9521C28.4304 19.853 28.4578 20.7977 28.2603 21.7107C27.5398 24.6614 25.0578 25.6756 22.2717 24.7305C21.4896 24.4778 20.8039 24.007 20.3022 23.3781C19.633 22.6208 19.1586 21.7233 18.9171 20.7578C18.7214 19.898 18.7428 19.0059 18.9797 18.1557C19.2164 17.3056 19.6616 16.5221 20.2781 15.8707C20.8632 15.1627 21.6226 14.6056 22.4879 14.2493C23.0346 13.9601 23.6744 13.8779 24.2813 14.0188C24.4189 14.0554 24.5439 14.1266 24.6432 14.2252C24.7425 14.3237 24.8125 14.446 24.846 14.5792C24.8795 14.7125 24.8752 14.852 24.8336 14.9831C24.792 15.1143 24.7147 15.2324 24.6095 15.3251C24.4096 15.4988 24.1924 15.6533 23.961 15.7862C23.2492 16.2212 22.6298 16.7818 22.1356 17.4383C21.8116 17.863 21.5885 18.3508 21.482 18.8672C21.3755 19.3836 21.3881 19.9162 21.5191 20.4274C21.7007 21.1245 22.1036 21.7502 22.672 22.2178C24.4333 23.7547 26.7231 22.2716 26.3228 20.1738C25.7384 20.3122 25.226 20.4581 24.7055 20.5811Z" fill="#3A3B7B"/>
<path d="M35.466 24.9149C32.864 26.4518 29.9017 24.9149 29.2532 21.6876C28.7809 19.3824 29.6776 16.155 32.816 14.9256C33.4838 14.6696 34.208 14.5797 34.9216 14.6643C35.779 14.8149 36.5655 15.22 37.1702 15.8225C37.7748 16.4249 38.1674 17.1943 38.2922 18.0223C38.8206 20.7655 37.6197 23.6932 35.466 24.9149ZM36.3708 19.7435C36.37 19.1052 36.1347 18.4875 35.7062 17.9992C35.4772 17.6972 35.1461 17.4808 34.7695 17.3869C34.3927 17.2931 33.9938 17.3275 33.6406 17.4844C32.2315 18.0683 31.2388 20.1892 31.5991 21.7491C31.6266 21.9939 31.7094 22.23 31.8419 22.4408C31.9744 22.6517 32.1532 22.8322 32.366 22.9698C32.5787 23.1074 32.8202 23.1987 33.0736 23.2374C33.327 23.276 33.5861 23.2611 33.8328 23.1937C34.5776 22.944 35.2225 22.4773 35.6774 21.8587C36.1325 21.2401 36.3749 20.5007 36.3708 19.7435Z" fill="#3A3B7B"/>
<path d="M40.9235 25.5604C40.8843 25.8417 40.7302 26.0964 40.4952 26.2686C40.2602 26.4408 39.9636 26.5164 39.6706 26.4787C39.3776 26.441 39.1122 26.2931 38.9328 26.0675C38.7533 25.8421 38.6746 25.5573 38.7139 25.2761C38.7531 24.9949 38.9072 24.7401 39.1422 24.5679C39.3772 24.3957 39.6738 24.3202 39.9668 24.3579C40.2598 24.3956 40.5252 24.5434 40.7047 24.7689C40.8841 24.9945 40.9629 25.2792 40.9235 25.5604ZM40.227 15.1945C40.3793 14.9713 40.6027 14.8013 40.8638 14.7099C41.125 14.6185 41.4099 14.6106 41.6761 14.6873C41.9468 14.7523 42.1859 14.9046 42.3535 15.1186C42.5211 15.3327 42.607 15.5955 42.5969 15.863C42.5616 16.2922 42.4947 16.7185 42.3967 17.1386C42.1325 18.5602 41.8763 19.9817 41.5961 21.3879C41.468 21.9489 41.2999 22.4868 41.1157 23.0554C41.0516 23.2331 40.9446 23.3937 40.8035 23.5241C40.7157 23.6222 40.6037 23.6974 40.4776 23.7428C40.3515 23.7883 40.2155 23.8024 40.0822 23.7841C39.949 23.7657 39.8226 23.7153 39.715 23.6377C39.6073 23.56 39.5219 23.4575 39.4665 23.3397C39.3713 23.1284 39.3196 22.9013 39.3143 22.6712C39.3143 21.7183 39.3143 20.7578 39.3784 19.7973C39.4872 18.4265 39.7013 17.0653 40.0189 15.7247C40.0563 15.5451 40.1267 15.3734 40.227 15.2176V15.1945Z" fill="#3A3B7B"/>
<path fill-rule="evenodd" clip-rule="evenodd" d="M4.31263 31.7353C4.2181 31.9378 4.19218 32.1636 4.23837 32.3809C4.2691 32.6674 4.3366 32.9491 4.43933 33.2197C4.56759 33.5511 4.71111 33.8788 4.88807 34.2827C4.92876 34.3757 4.97129 34.4727 5.01579 34.5748C5.25443 35.1219 5.55386 35.8212 5.95326 36.8333C6.06631 37.1208 6.1667 37.4106 6.26779 37.7025C6.30862 37.8204 6.34961 37.9387 6.39156 38.0573C6.54193 38.4788 6.80067 38.8575 7.14364 39.1577C7.28927 39.3227 7.48244 39.4429 7.69904 39.503C7.91988 39.5643 8.15474 39.5604 8.37323 39.4918C8.59171 39.4232 8.7836 39.2931 8.924 39.1184C9.06164 38.9471 9.14349 38.7407 9.1594 38.525C9.2487 38.1049 9.21822 37.6693 9.07104 37.2643C8.83745 36.5918 8.57136 35.9184 8.26452 35.2597L8.26311 35.2568C7.75833 34.2262 7.24523 33.2028 6.70784 32.179L6.70382 32.1718C6.5465 31.9051 6.34206 31.6666 6.09967 31.4672C5.94232 31.2891 5.72526 31.169 5.48556 31.1277C5.24076 31.0854 4.98827 31.128 4.77319 31.2479C4.56972 31.3594 4.40843 31.53 4.31263 31.7353Z" fill="#3A3B7B"/>
<path fill-rule="evenodd" clip-rule="evenodd" d="M12.0224 29.1976C11.2309 29.0008 10.4043 28.9722 9.60018 29.1136C8.97737 29.1725 8.36482 29.3104 7.93947 29.5835C7.72314 29.7225 7.54823 29.901 7.45094 30.1278C7.35311 30.3559 7.34063 30.6168 7.42079 30.9075C7.56717 31.4399 7.75725 31.9575 7.94666 32.4735L7.97734 32.5571L7.97808 32.559C8.54839 34.058 9.12414 35.5519 9.70513 37.0408C9.77288 37.2754 9.86869 37.5017 9.99062 37.7152L9.9929 37.7192C10.154 37.9844 10.3606 38.2216 10.604 38.4208C10.7257 38.5304 10.8762 38.6062 11.0395 38.6401C11.2043 38.6742 11.3757 38.6643 11.535 38.6113C11.6944 38.5584 11.8356 38.4645 11.9431 38.3398C12.049 38.2171 12.1182 38.0693 12.1437 37.9121C12.2487 37.4849 12.2151 37.037 12.0472 36.6286C11.9948 36.4912 11.9537 36.3508 11.9104 36.2029C11.896 36.1536 11.8814 36.1035 11.8659 36.0524C13.1958 35.5535 14.6109 34.8826 15.1085 33.3218C15.3033 32.7825 15.3195 32.1985 15.1549 31.6499C14.9901 31.1006 14.6521 30.6138 14.1873 30.2565C13.5548 29.7562 12.8159 29.3948 12.0224 29.1976ZM9.82847 31.1119C9.85466 31.1047 9.88104 31.0979 9.9075 31.0917C10.7733 30.961 11.6591 31.1351 12.4019 31.5817C12.7292 31.8002 12.8633 32.0429 12.8863 32.2765C12.9101 32.517 12.8189 32.7776 12.6359 33.0282C12.2901 33.5014 11.6589 33.8802 11.0888 33.9508C10.6732 33.0321 10.2511 32.0763 9.82847 31.1119Z" fill="#3A3B7B"/>
<path d="M17.2991 27.5161C18.2417 27.0983 19.4092 27.0261 20.3228 27.3199C20.5529 27.3842 20.7525 27.5233 20.8876 27.7135C21.0217 27.9024 21.0836 28.1301 21.0629 28.3578C21.0616 28.5056 21.0238 28.651 20.9527 28.7821C20.8803 28.9157 20.7755 29.0305 20.6471 29.1169C20.5187 29.2033 20.3706 29.2589 20.2151 29.2787C20.0596 29.2987 19.9015 29.2823 19.754 29.2311L19.7428 29.2272L19.7322 29.2219C19.6568 29.184 19.5766 29.1554 19.4937 29.1368L19.4884 29.1357C18.8457 28.9719 18.2395 29.2434 18.0181 29.5769C17.9125 29.736 17.8994 29.8965 17.9873 30.0426C18.0815 30.199 18.3126 30.3745 18.7801 30.4996C18.9087 30.5335 19.0405 30.5661 19.1741 30.5994C19.5438 30.6912 19.928 30.7867 20.2995 30.919L20.3009 30.9195C22.0148 31.5454 22.653 32.8416 22.4345 34.0608C22.2184 35.2665 21.1693 36.3637 19.5916 36.6225C19.0176 36.7447 18.4201 36.7209 17.8585 36.5535C17.2954 36.3857 16.7879 36.0794 16.3863 35.6649L16.3758 35.6541C16.2491 35.498 16.1638 35.3146 16.126 35.1199C16.0912 34.9443 16.1095 34.7628 16.1787 34.5968C16.2474 34.4317 16.3637 34.2889 16.5138 34.1848C16.6723 34.0668 16.8634 33.9961 17.0634 33.9813C17.2628 33.9666 17.4623 34.0082 17.6373 34.1009C17.8121 34.1819 17.9748 34.2853 18.1207 34.4083L18.1235 34.4106C18.3817 34.6372 18.6941 34.6963 18.9937 34.6416C19.2977 34.5861 19.5835 34.4135 19.7673 34.1844C19.95 33.9568 20.0233 33.6865 19.9363 33.424C19.8487 33.1597 19.5854 32.8635 19.007 32.6159C18.8558 32.5542 18.699 32.5045 18.5359 32.4562C18.492 32.4431 18.4472 32.4301 18.402 32.4169C18.2814 32.3818 18.1573 32.3456 18.0357 32.3058C17.9519 32.2783 17.8687 32.2524 17.7864 32.2266C17.5614 32.1563 17.3421 32.0877 17.131 31.9958C16.6715 31.8456 16.2746 31.5574 15.9992 31.1736C15.7227 30.7883 15.5836 30.3275 15.6025 29.8601C15.604 28.721 16.3515 27.9362 17.2991 27.5161Z" fill="#3A3B7B"/>
<path d="M29.2488 27.3947C29.066 27.3091 28.8639 27.2684 28.6607 27.2764C28.4575 27.2844 28.2595 27.3408 28.0848 27.4407C27.9111 27.5398 27.7656 27.6786 27.6614 27.8448C27.5659 27.9847 27.4998 28.1412 27.4668 28.3055C27.4338 28.4697 27.4346 28.6384 27.4691 28.8022C27.5031 29.0127 27.5408 29.2174 27.5781 29.4193C27.6398 29.7534 27.6998 30.0799 27.7394 30.4129L27.7409 30.4214C27.8311 30.9436 27.8783 31.4717 27.8825 32.0009L27.8829 32.0084C27.9138 32.58 27.7108 33.1404 27.3177 33.5708L27.3115 33.5785C27.1836 33.7358 27.0126 33.8559 26.8175 33.9253C26.6225 33.9947 26.4113 34.0106 26.2074 33.9714C26.0035 33.9321 25.815 33.8391 25.663 33.7029C25.511 33.5667 25.4013 33.392 25.3466 33.1995C25.2298 32.7937 25.1622 32.3763 25.145 31.9557L25.3445 28.9065C25.3475 28.8667 25.3508 28.8258 25.3543 28.7846C25.3619 28.692 25.3696 28.5977 25.3729 28.5097C25.3776 28.3802 25.3735 28.2471 25.3421 28.1211C25.31 27.9923 25.2488 27.8698 25.1403 27.7654C25.0329 27.6621 24.8878 27.5859 24.7053 27.5341C24.3753 27.4424 24.0963 27.4453 23.8638 27.54C23.6311 27.6347 23.4717 27.8106 23.3589 28.0137C23.247 28.2151 23.1751 28.4536 23.1207 28.6924C23.0803 28.8697 23.0479 29.0557 23.0171 29.2328C23.0064 29.2938 22.996 29.3538 22.9855 29.412L22.9852 29.4137C22.8203 30.3849 22.7712 31.371 22.8389 32.353C22.8515 32.8836 22.9668 33.4074 23.179 33.8975C23.4183 34.53 23.8519 35.078 24.4224 35.4691C24.9941 35.8611 25.6763 36.0771 26.3788 36.0885C27.0812 36.0999 27.7707 35.9062 28.356 35.5331C28.9402 35.1605 29.393 34.6265 29.6545 34.0017C30.0202 33.2059 30.192 32.3404 30.1565 31.4712C30.135 30.8366 30.0991 30.1971 30.0633 29.5609C30.0457 29.2488 30.0281 28.9374 30.0124 28.6279C30.0045 28.3175 29.8979 28.0169 29.7068 27.7664C29.5886 27.608 29.4312 27.4803 29.2488 27.3947Z" fill="#3A3B7B"/>
<path d="M35.7174 32.1758C35.6988 32.1984 35.6793 32.2218 35.6589 32.2462C35.5102 31.4231 35.3725 30.6003 35.2345 29.7762C35.185 29.4806 35.1352 29.1836 35.0852 28.8876L35.0796 28.8546L35.0613 28.826C35.0269 28.7723 35.0234 28.7196 35.0234 28.6073V28.5943L35.0214 28.5815C34.984 28.3496 34.8747 28.1337 34.7077 27.9622C34.5412 27.7912 34.325 27.6721 34.0871 27.6205C33.8496 27.5643 33.6 27.5766 33.3698 27.6561C33.1402 27.7354 32.94 27.8779 32.7943 28.0658C32.6732 28.2099 32.5739 28.3698 32.4995 28.5406C32.3306 28.9087 32.1603 29.2776 31.9895 29.6476L31.9865 29.654C31.5601 30.5775 31.1308 31.5073 30.7139 32.4444L30.7127 32.4475C30.4568 33.0551 30.2456 33.6953 30.0351 34.3336C29.993 34.461 29.951 34.5883 29.9086 34.7153C29.8326 34.9167 29.7994 35.1307 29.8108 35.3446C29.797 35.536 29.8447 35.727 29.9477 35.8917C30.0527 36.0598 30.21 36.192 30.3974 36.2699C30.596 36.3534 30.8181 36.3712 31.0284 36.3203C31.2383 36.2695 31.4247 36.1532 31.5583 35.9897C31.7288 35.7884 31.8755 35.5688 31.9952 35.3361C32.3483 34.6429 32.6857 33.9412 33.0216 33.2426C33.1516 32.9724 33.2779 32.7303 33.4216 32.4668C33.4315 32.4993 33.4416 32.531 33.452 32.5627C33.6026 33.1991 33.8568 33.8086 34.2052 34.369C34.2711 34.4877 34.363 34.5914 34.4744 34.6731C34.5872 34.7557 34.7174 34.8137 34.8559 34.8432C34.9944 34.8726 35.138 34.8728 35.2766 34.8436C35.415 34.8144 35.5455 34.7564 35.6584 34.6741L35.8818 34.5136L37.6156 33.1119L37.5131 33.7391C37.3724 34.6011 37.2327 35.4559 37.0843 36.311C36.9872 36.69 36.9874 37.0858 37.0847 37.4647C37.1269 37.6779 37.2343 37.8741 37.3933 38.0285C37.5537 38.1841 37.759 38.2898 37.9827 38.332C38.2064 38.3741 38.4382 38.3508 38.6479 38.2649C38.8545 38.1804 39.0303 38.0389 39.1532 37.8587C39.4391 37.5182 39.617 37.1061 39.6659 36.6713C39.7395 36.0573 39.8226 35.4349 39.9058 34.8127C40.0016 34.0956 40.0974 33.3786 40.1783 32.6754L40.1786 32.6733C40.2565 31.9035 40.2942 31.1306 40.2915 30.3572C40.3086 30.1128 40.2452 29.8694 40.1101 29.6613C39.9746 29.4525 39.7738 29.2901 39.5365 29.1973C39.2897 29.0896 39.0134 29.0608 38.7483 29.1152C38.4849 29.1693 38.2464 29.3025 38.0676 29.4956C37.7478 29.7795 37.4478 30.0832 37.1695 30.4049L37.1676 30.4071C36.8638 30.7705 36.562 31.1409 36.2622 31.509C36.0799 31.7328 35.8982 31.956 35.7174 32.1758Z" fill="#3A3B7B"/>
</g>
<defs>
<clipPath id="clip0_22_769">
<rect width="47" height="29" fill="white" transform="translate(0 10.5463)"/>
</clipPath>
</defs>
</svg>
