<svg width="48" height="49" viewBox="0 0 48 49" fill="none" xmlns="http://www.w3.org/2000/svg">
<rect y="0.699463" width="48" height="48" rx="8" fill="#F5F7FA"/>
<g clip-path="url(#clip0_22_767)">
<path fill-rule="evenodd" clip-rule="evenodd" d="M10.0981 14.6609L0.112305 24.5463C2.10964 26.5236 4.39129 28.19 6.87894 29.4937C7.56655 31.2993 8.64433 32.9926 10.1123 34.4458C15.6352 39.9131 24.5895 39.9131 30.1123 34.4458C31.5803 32.9926 32.6581 31.2993 33.3457 29.4936C35.8333 28.19 38.115 26.5236 40.1123 24.5463L30.1346 14.6689C30.1272 14.6615 30.1198 14.6541 30.1123 14.6468C24.5895 9.17943 15.6352 9.17943 10.1123 14.6468C10.1076 14.6515 10.1028 14.6562 10.0981 14.6609ZM29.1568 31.2772C26.2468 32.2494 23.192 32.7473 20.1123 32.7473C17.0326 32.7473 13.9779 32.2494 11.0679 31.2772C11.3832 31.6913 11.7313 32.0887 12.1123 32.4659C16.5306 36.8398 23.694 36.8398 28.1123 32.4659C28.4933 32.0887 28.8415 31.6913 29.1568 31.2772ZM12.3174 16.4287C13.0677 16.9194 13.8655 17.3393 14.7003 17.6816C16.4161 18.3852 18.2551 18.7473 20.1123 18.7473C21.9695 18.7473 23.8085 18.3852 25.5243 17.6816C26.3591 17.3393 27.1569 16.9194 27.9073 16.4286C23.5441 12.3188 16.6805 12.3188 12.3174 16.4287Z" fill="#3B4158"/>
</g>
<defs>
<clipPath id="clip0_22_767">
<rect width="40" height="28" fill="white" transform="translate(0.112305 10.5463)"/>
</clipPath>
</defs>
</svg>
