<svg width="55" height="49" viewBox="0 0 55 49" fill="none" xmlns="http://www.w3.org/2000/svg">
<rect y="0.699463" width="48" height="48" rx="8" fill="#F5F7FA"/>
<g clip-path="url(#clip0_22_768)">
<path d="M54.9957 20.2159C55.0015 20.1742 55.0015 20.1321 54.9957 20.0904C55.0011 20.0564 55.0011 20.0217 54.9957 19.9877L54.5883 17.055C54.5295 16.7042 54.3723 16.3763 54.1344 16.1079L54.0645 16.028L53.9365 15.9025L46.8829 9.94594L47.0808 10.1399C46.9189 9.95006 46.7157 9.79818 46.4861 9.69549C46.2565 9.59279 46.0062 9.5419 45.7539 9.54656H43.6122C43.2639 9.5398 42.9236 9.64835 42.6461 9.85467C42.3547 9.64959 42.0038 9.5416 41.6451 9.54656H39.5034C39.2225 9.54209 38.9454 9.61044 38.7001 9.74469C38.4549 9.87895 38.2501 10.0743 38.1067 10.3111C37.8855 10.6493 37.8023 11.0567 37.8738 11.4522L38.1416 13.3008C37.9642 13.2022 37.7635 13.1511 37.5596 13.1525H27.1887C26.8166 13.1548 26.4531 13.2617 26.1411 13.4606C25.8395 13.6457 25.5973 13.9107 25.4428 14.2251L24.6396 13.5518C24.3235 13.2651 23.9063 13.1097 23.4757 13.1182H7.20353C6.83012 13.1249 6.46501 13.2272 6.14436 13.4149C5.70569 13.6666 5.38421 14.0759 5.24809 14.556L0.0801167 31.5015C-0.0164452 31.7807 -0.0259442 32.0818 0.0528362 32.3664C0.131617 32.6508 0.295109 32.906 0.522426 33.099C0.581658 33.1482 0.643851 33.194 0.708664 33.2359C0.708664 33.2359 0.603891 33.1674 0.545692 33.1104L7.59931 39.0784C7.89769 39.3477 8.28781 39.4983 8.69336 39.5006H25.0936C25.4681 39.4911 25.8335 39.3848 26.1528 39.1925C26.3334 39.0957 26.495 38.9682 26.63 38.8159L26.6882 38.736L26.7813 38.622L26.8512 38.4964L27.6194 39.1469C27.9135 39.4055 28.2951 39.5478 28.6902 39.5463H45.1253C45.4994 39.534 45.8641 39.428 46.1845 39.2382C46.361 39.1355 46.5217 39.0087 46.6618 38.8616L46.7199 38.7817L46.813 38.6676C46.8625 38.5954 46.9055 38.5191 46.941 38.4393C46.9791 38.3702 47.0103 38.2976 47.0342 38.2226L51.7482 22.7492V22.6122C51.754 22.5591 51.754 22.5056 51.7482 22.4525V22.3498C51.7539 22.3158 51.7539 22.2811 51.7482 22.2471C51.7535 22.1749 51.7535 22.1025 51.7482 22.0302H53.2614C53.393 22.0421 53.5255 22.0421 53.6571 22.0302H53.7619C53.8471 22.0053 53.9291 21.9708 54.0063 21.9276H54.1227L54.3322 21.7678L54.4253 21.6993L54.5883 21.4939V21.4255L54.7047 21.2315C54.6982 21.1938 54.6982 21.1551 54.7047 21.1174C54.6985 21.0989 54.6985 21.0789 54.7047 21.0603C54.7294 20.9934 54.7489 20.9247 54.7629 20.8549C54.7575 20.8324 54.7575 20.8089 54.7629 20.7864C54.7572 20.7525 54.7572 20.7177 54.7629 20.6838C54.7629 20.6838 54.9957 20.2387 54.9957 20.2159Z" fill="black"/>
<path d="M23.9529 14.4191C24.0147 14.4739 24.0579 14.5459 24.0766 14.6255C24.0954 14.7051 24.0887 14.7884 24.0577 14.8641L18.9014 31.7982C18.8365 31.983 18.7036 32.1376 18.5289 32.2318C18.3868 32.325 18.2222 32.3801 18.0517 32.3916H1.66316C1.5232 32.385 1.39061 32.3281 1.29069 32.2318C1.23125 32.1779 1.18954 32.1078 1.17088 32.0307C1.15221 31.9534 1.15747 31.8725 1.18594 31.7982L6.35391 14.8641C6.41346 14.6769 6.54212 14.5182 6.71474 14.4191C6.85924 14.3326 7.023 14.2817 7.19196 14.2708H23.5805C23.7193 14.2721 23.8525 14.3251 23.9529 14.4191ZM15.3978 28.3863L18.4823 18.276H9.84581L6.77292 28.3863H15.3978ZM39.5965 14.5903C39.6525 14.654 39.7223 14.7045 39.801 14.7381C39.8796 14.7717 39.9648 14.7875 40.0505 14.7843H42.1805C42.2617 14.785 42.3416 14.7655 42.4129 14.7276C42.4842 14.6897 42.5444 14.6345 42.5879 14.5674C42.6257 14.515 42.6525 14.4557 42.6665 14.393C42.6804 14.3303 42.6814 14.2654 42.6694 14.2023L42.2504 11.1898C42.2105 11.0504 42.1388 10.9216 42.0409 10.8132C41.9849 10.7495 41.9151 10.699 41.8365 10.6654C41.7579 10.6318 41.6726 10.616 41.5869 10.6192H39.4569C39.3758 10.6184 39.2958 10.6379 39.2245 10.6759C39.1532 10.7138 39.093 10.7689 39.0495 10.836C38.968 10.9958 38.9331 11.0985 38.968 11.1898L39.3987 14.2023C39.4208 14.349 39.4901 14.4849 39.5965 14.5903ZM46.3592 11.167C46.3192 11.0275 46.2476 10.8988 46.1496 10.7904C46.0961 10.7269 46.0283 10.6764 45.9516 10.6428C45.8749 10.6091 45.7913 10.5933 45.7073 10.5964H43.5656C43.4859 10.5942 43.407 10.6131 43.3373 10.6513C43.2676 10.6895 43.2098 10.7454 43.1699 10.8132C43.0925 10.9144 43.0589 11.0416 43.0768 11.167L43.5074 14.1795C43.5345 14.3246 43.6031 14.4592 43.7053 14.5674C43.7622 14.6299 43.8323 14.6796 43.9107 14.7131C43.989 14.7465 44.0738 14.763 44.1592 14.7614H46.301C46.3806 14.7625 46.4589 14.743 46.5284 14.7049C46.5979 14.6669 46.6559 14.6116 46.6967 14.5446C46.7372 14.4936 46.7655 14.4343 46.7796 14.3711C46.7937 14.3079 46.7932 14.2424 46.7782 14.1795L46.3592 11.167ZM37.7226 15.7314L37.513 14.2479H27.1888C27.0267 14.2567 26.8698 14.3079 26.7348 14.3963C26.6491 14.4421 26.5744 14.5056 26.5162 14.5825C26.458 14.6593 26.4174 14.7476 26.3973 14.8413L25.5359 17.6712C25.5016 17.742 25.4898 17.8213 25.5023 17.8987C25.5148 17.9761 25.5508 18.048 25.6058 18.1049C25.7039 18.1953 25.832 18.2481 25.9666 18.2532H38.5141L35.4296 28.3635H22.917C22.7557 28.3671 22.5986 28.4145 22.4631 28.5003C22.2985 28.6029 22.1783 28.7613 22.1256 28.9454L21.2526 31.7754C21.2241 31.848 21.2166 31.9269 21.231 32.0034C21.2454 32.0799 21.281 32.151 21.334 32.2089C21.4291 32.3055 21.5582 32.3626 21.6949 32.3687H38.1299C38.2999 32.3544 38.4638 32.2995 38.6071 32.2089C38.779 32.1143 38.908 31.9594 38.968 31.7754L43.6936 16.3019H38.3744C38.29 16.3036 38.2062 16.2882 38.1281 16.2568C38.05 16.2254 37.9794 16.1786 37.9205 16.1193C37.8242 16.0159 37.7562 15.8903 37.7226 15.7542V15.7314Z" fill="white"/>
</g>
<defs>
<clipPath id="clip0_22_768">
<rect width="55" height="30" fill="white" transform="translate(0 9.54626)"/>
</clipPath>
</defs>
</svg>
