<svg width="48" height="49" viewBox="0 0 48 49" fill="none" xmlns="http://www.w3.org/2000/svg">
<path d="M16.4999 9.03639C18.8587 9.03639 21.161 9.76218 23.0936 11.1145C25.0259 12.4667 26.4955 14.3803 27.3036 16.596C28.1117 18.8119 28.2195 21.2233 27.6112 23.5022C27.0029 25.7811 25.7081 27.8177 23.9032 29.3362L23.2958 29.8479L24.0184 30.1751C26.9917 31.5206 29.5508 33.6377 31.4286 36.3069L31.4354 36.3167L31.4432 36.3264C31.589 36.5132 31.6953 36.7282 31.7557 36.9573C31.8162 37.1865 31.8296 37.4259 31.7948 37.6604C31.76 37.8949 31.6779 38.1198 31.5536 38.3215C31.4292 38.5234 31.265 38.6978 31.0712 38.8342C30.8773 38.9707 30.6576 39.0664 30.4257 39.1155C30.1938 39.1645 29.954 39.1667 29.7216 39.1204C29.4892 39.074 29.2685 38.9801 29.0731 38.846C28.8778 38.7118 28.7115 38.5393 28.5848 38.3391L28.579 38.3294L28.5721 38.3196L28.3114 37.9602C26.984 36.1855 25.2724 34.7311 23.3026 33.7073C21.2014 32.6152 18.8679 32.0452 16.4999 32.0452C14.1319 32.0452 11.7983 32.6152 9.69714 33.7073C7.5961 34.7994 5.78925 36.3816 4.42859 38.3196L4.42761 38.3206C4.26766 38.5503 4.05386 38.7382 3.80554 38.8674C3.55736 38.9966 3.2816 39.0635 3.00183 39.0628H2.99792C2.63907 39.0638 2.28891 38.9521 1.99695 38.7434L1.995 38.7424L1.85828 38.635C1.55451 38.372 1.34853 38.011 1.27917 37.6116C1.19996 37.1551 1.30489 36.6851 1.57117 36.3059C3.44896 33.637 6.00823 31.5205 8.98132 30.1751L9.70398 29.8479L9.09656 29.3362C7.29172 27.8178 5.99686 25.781 5.38855 23.5022C4.78027 21.2233 4.88805 18.8119 5.69617 16.596C6.50434 14.3801 7.9746 12.4668 9.9071 11.1145C11.8397 9.7622 14.1411 9.03641 16.4999 9.03639ZM28.6649 9.48366H28.6659L28.6747 9.4817C29.6848 9.19416 30.7299 9.04834 31.7802 9.05006H31.7831C34.1431 9.04329 36.4479 9.76447 38.3837 11.1145C40.3196 12.4647 41.7923 14.3788 42.6014 16.596C43.4105 18.8131 43.5164 21.2255 42.9052 23.5051C42.2939 25.7848 40.9953 27.8213 39.1854 29.3362L38.5751 29.8469L39.2997 30.1751C42.273 31.5206 44.832 33.6377 46.7098 36.3069L46.7118 36.3098C46.8452 36.4965 46.94 36.7082 46.9911 36.9319C47.0421 37.1556 47.0489 37.3875 47.0096 37.6135C46.9704 37.8394 46.886 38.055 46.7626 38.2483C46.6391 38.4417 46.4785 38.6088 46.2899 38.7395L46.2841 38.7434C45.992 38.9521 45.642 39.0629 45.2831 39.0618C45.0026 39.06 44.7262 38.993 44.4774 38.8635C44.2906 38.7663 44.1238 38.636 43.9833 38.4807L43.8514 38.3176C42.4881 36.3837 40.6809 34.8046 38.5809 33.7141C36.4806 32.6234 34.1487 32.0527 31.7821 32.0501H31.7811C31.3171 32.05 30.872 31.8664 30.5438 31.5383C30.2156 31.2102 30.0311 30.7642 30.0311 30.3001C30.0312 29.8361 30.2157 29.3909 30.5438 29.0628C30.872 28.7347 31.3171 28.5501 31.7811 28.5501C33.9029 28.5501 35.9381 27.7076 37.4384 26.2073C38.9386 24.707 39.7811 22.6717 39.7811 20.5501C39.781 18.4286 38.9384 16.394 37.4384 14.8938C35.9381 13.3935 33.9029 12.5501 31.7811 12.5501C31.05 12.5488 30.3221 12.6503 29.619 12.8508L29.6132 12.8528C29.3908 12.9191 29.1574 12.94 28.9266 12.9153C28.6959 12.8906 28.4727 12.8202 28.2694 12.7083C28.0661 12.5963 27.8864 12.4457 27.7421 12.2639C27.5978 12.0821 27.4915 11.8731 27.4286 11.6497C27.3657 11.4263 27.3476 11.1925 27.3759 10.9622C27.4042 10.7318 27.4785 10.5094 27.5936 10.3079C27.7087 10.1063 27.8627 9.92978 28.0468 9.78835C28.2307 9.64698 28.4407 9.54305 28.6649 9.48366ZM18.0604 12.7044C16.5086 12.3957 14.9001 12.554 13.4384 13.1594C11.9767 13.7649 10.7275 14.7903 9.84851 16.1057C8.96953 17.4212 8.49996 18.968 8.49988 20.5501C8.49988 22.6717 9.34252 24.707 10.8427 26.2073C12.3429 27.7076 14.3782 28.55 16.4999 28.5501C18.082 28.5501 19.6287 28.0813 20.9442 27.2024C22.2598 26.3234 23.286 25.0734 23.8915 23.6116C24.4968 22.1499 24.6552 20.5412 24.3466 18.9895C24.0379 17.4378 23.2758 16.0126 22.1571 14.8938C21.0383 13.775 19.6123 13.013 18.0604 12.7044Z" fill="#4CAF4F" stroke="#4CAF4F"/>
</svg>
