<svg width="48" height="49" viewBox="0 0 48 49" fill="none" xmlns="http://www.w3.org/2000/svg">
<mask id="path-1-inside-1_16_1455" fill="white">
<path d="M28.3117 23.9452C28.0709 23.9452 27.8473 23.8789 27.6487 23.7725V23.7753C27.6487 24.1541 27.5014 24.5099 27.2343 24.7764C26.9671 25.0435 26.6116 25.1908 26.2332 25.1908C25.9889 25.1908 25.7625 25.1229 25.5617 25.0136C25.5415 25.3602 25.4029 25.6841 25.1558 25.9315C24.8886 26.1987 24.5331 26.3459 24.1545 26.3459C23.4022 26.3459 22.7913 25.7546 22.7473 25.0134C22.5145 25.1392 22.2513 25.2052 21.9799 25.1877C21.2398 25.1392 20.6603 24.4998 20.6603 23.7317V17.3651L19.9353 18.621C19.6592 19.1014 19.1423 19.3997 18.5858 19.3997C18.3147 19.3997 18.0468 19.3285 17.8095 19.1926C17.5141 19.0213 17.3028 18.7463 17.2149 18.4174C17.1265 18.0883 17.1722 17.7441 17.3431 17.4491C17.3433 17.4491 19.715 13.3419 19.8597 13.0896C19.8769 13.0517 19.9259 12.9417 19.9676 12.8479C20.0075 12.7584 20.0416 12.6665 20.0744 12.5741C20.7896 10.5548 22.5607 9.3005 24.6966 9.3005C27.4703 9.3005 29.7268 11.7474 29.7268 14.7551L29.727 22.5294C29.727 22.9078 29.58 23.2633 29.3131 23.5308C29.0459 23.7979 28.6904 23.9452 28.3116 23.9452L28.3117 23.9452ZM24.6966 10.0526C22.8613 10.0526 21.3984 11.0893 20.7833 12.8257C20.744 12.9359 20.703 13.0462 20.6552 13.1536C20.5164 13.4648 20.5164 13.4648 20.4773 13.5096L20.4721 13.5051C20.2784 13.8705 19.7031 14.8669 17.9943 17.8255C17.9241 17.9469 17.9055 18.0877 17.9413 18.2225C17.9776 18.3573 18.0645 18.4708 18.1849 18.5403C18.5586 18.755 19.0703 18.6164 19.2833 18.2454L20.7108 15.7739C20.7961 15.6267 20.9685 15.5543 21.1339 15.5991C21.2983 15.6432 21.4126 15.7923 21.4126 15.9624V23.7319C21.4126 24.0985 21.6892 24.4149 22.0292 24.4373C22.2252 24.4476 22.408 24.3819 22.5454 24.2448C22.6702 24.1199 22.739 23.9536 22.739 23.7757V18.6943C22.739 18.4866 22.9075 18.3181 23.1153 18.3181C23.3231 18.3181 23.4915 18.4863 23.4915 18.6943L23.4913 24.9307C23.4913 25.2964 23.7889 25.5939 24.1545 25.5939C24.3321 25.5939 24.499 25.5251 24.6241 25.4003C24.7489 25.2752 24.8177 25.1084 24.8177 24.9307V18.6943C24.8177 18.4865 24.9859 18.3181 25.194 18.3181C25.4018 18.3181 25.5702 18.4863 25.5702 18.6943L25.57 23.7173V23.7757C25.57 24.1411 25.8675 24.4387 26.2334 24.4387C26.4108 24.4387 26.5772 24.3696 26.703 24.2443C26.8278 24.1197 26.8966 23.9533 26.8966 23.7755V18.6941C26.8966 18.4863 27.0649 18.3178 27.2729 18.3178C27.4807 18.3178 27.6491 18.486 27.6491 18.6941L27.6487 22.5296C27.6487 22.8955 27.9462 23.1931 28.3116 23.1931C28.4895 23.1931 28.6558 23.124 28.7807 22.9994C28.906 22.8741 28.9746 22.7073 28.9746 22.5296L28.9748 14.7553C28.9748 12.1625 27.0557 10.0527 24.6966 10.0527L24.6966 10.0526Z"/>
</mask>
<path d="M28.3117 23.9452C28.0709 23.9452 27.8473 23.8789 27.6487 23.7725V23.7753C27.6487 24.1541 27.5014 24.5099 27.2343 24.7764C26.9671 25.0435 26.6116 25.1908 26.2332 25.1908C25.9889 25.1908 25.7625 25.1229 25.5617 25.0136C25.5415 25.3602 25.4029 25.6841 25.1558 25.9315C24.8886 26.1987 24.5331 26.3459 24.1545 26.3459C23.4022 26.3459 22.7913 25.7546 22.7473 25.0134C22.5145 25.1392 22.2513 25.2052 21.9799 25.1877C21.2398 25.1392 20.6603 24.4998 20.6603 23.7317V17.3651L19.9353 18.621C19.6592 19.1014 19.1423 19.3997 18.5858 19.3997C18.3147 19.3997 18.0468 19.3285 17.8095 19.1926C17.5141 19.0213 17.3028 18.7463 17.2149 18.4174C17.1265 18.0883 17.1722 17.7441 17.3431 17.4491C17.3433 17.4491 19.715 13.3419 19.8597 13.0896C19.8769 13.0517 19.9259 12.9417 19.9676 12.8479C20.0075 12.7584 20.0416 12.6665 20.0744 12.5741C20.7896 10.5548 22.5607 9.3005 24.6966 9.3005C27.4703 9.3005 29.7268 11.7474 29.7268 14.7551L29.727 22.5294C29.727 22.9078 29.58 23.2633 29.3131 23.5308C29.0459 23.7979 28.6904 23.9452 28.3116 23.9452L28.3117 23.9452ZM24.6966 10.0526C22.8613 10.0526 21.3984 11.0893 20.7833 12.8257C20.744 12.9359 20.703 13.0462 20.6552 13.1536C20.5164 13.4648 20.5164 13.4648 20.4773 13.5096L20.4721 13.5051C20.2784 13.8705 19.7031 14.8669 17.9943 17.8255C17.9241 17.9469 17.9055 18.0877 17.9413 18.2225C17.9776 18.3573 18.0645 18.4708 18.1849 18.5403C18.5586 18.755 19.0703 18.6164 19.2833 18.2454L20.7108 15.7739C20.7961 15.6267 20.9685 15.5543 21.1339 15.5991C21.2983 15.6432 21.4126 15.7923 21.4126 15.9624V23.7319C21.4126 24.0985 21.6892 24.4149 22.0292 24.4373C22.2252 24.4476 22.408 24.3819 22.5454 24.2448C22.6702 24.1199 22.739 23.9536 22.739 23.7757V18.6943C22.739 18.4866 22.9075 18.3181 23.1153 18.3181C23.3231 18.3181 23.4915 18.4863 23.4915 18.6943L23.4913 24.9307C23.4913 25.2964 23.7889 25.5939 24.1545 25.5939C24.3321 25.5939 24.499 25.5251 24.6241 25.4003C24.7489 25.2752 24.8177 25.1084 24.8177 24.9307V18.6943C24.8177 18.4865 24.9859 18.3181 25.194 18.3181C25.4018 18.3181 25.5702 18.4863 25.5702 18.6943L25.57 23.7173V23.7757C25.57 24.1411 25.8675 24.4387 26.2334 24.4387C26.4108 24.4387 26.5772 24.3696 26.703 24.2443C26.8278 24.1197 26.8966 23.9533 26.8966 23.7755V18.6941C26.8966 18.4863 27.0649 18.3178 27.2729 18.3178C27.4807 18.3178 27.6491 18.486 27.6491 18.6941L27.6487 22.5296C27.6487 22.8955 27.9462 23.1931 28.3116 23.1931C28.4895 23.1931 28.6558 23.124 28.7807 22.9994C28.906 22.8741 28.9746 22.7073 28.9746 22.5296L28.9748 14.7553C28.9748 12.1625 27.0557 10.0527 24.6966 10.0527L24.6966 10.0526Z" fill="#4CAF4F"/>
<path d="M28.3117 23.9452V22.6118H33.0224L29.0104 25.0807L28.3117 23.9452ZM27.6487 23.7725H26.3154V21.5446L28.2788 22.5974L27.6487 23.7725ZM27.2343 24.7764L26.2915 23.8336L26.2927 23.8323L27.2343 24.7764ZM25.5617 25.0136L24.2307 24.9358L24.3534 22.8373L26.1994 23.8426L25.5617 25.0136ZM25.1558 25.9315L26.0991 26.8738L26.0986 26.8743L25.1558 25.9315ZM22.7473 25.0134L22.1133 23.8404L23.9542 22.8455L24.0782 24.9343L22.7473 25.0134ZM21.9799 25.1877L21.8944 26.5183L21.8926 26.5182L21.9799 25.1877ZM20.6603 17.3651L19.5055 16.6985L21.9936 12.388V17.3651H20.6603ZM19.9353 18.621L18.7794 17.9566L18.7806 17.9545L19.9353 18.621ZM17.8095 19.1926L17.1466 20.3495L17.1408 20.3461L17.8095 19.1926ZM17.2149 18.4174L18.5026 18.0718L18.503 18.0733L17.2149 18.4174ZM17.3431 17.4491L16.1892 16.781L16.5744 16.1158H17.3431V17.4491ZM19.8597 13.0896L21.0741 13.6402L21.0479 13.6979L21.0164 13.7529L19.8597 13.0896ZM19.9676 12.8479L18.7494 12.3061L18.7494 12.3061L19.9676 12.8479ZM20.0744 12.5741L21.3312 13.0193L21.3311 13.0197L20.0744 12.5741ZM29.7268 14.7551L28.3935 14.7551V14.7551H29.7268ZM29.727 22.5294L31.0604 22.5294V22.5294H29.727ZM29.3131 23.5308L30.2568 24.4727L30.2559 24.4736L29.3131 23.5308ZM28.3116 23.9452V25.2785H23.6009L27.6128 22.8096L28.3116 23.9452ZM24.6966 10.0526V8.71931H26.4642L25.9786 10.4189L24.6966 10.0526ZM20.7833 12.8257L22.0401 13.2709L22.0391 13.2738L20.7833 12.8257ZM20.6552 13.1536L21.8732 13.6959L21.8729 13.6966L20.6552 13.1536ZM20.4773 13.5096L21.4813 14.3869L20.6091 15.3852L19.6058 14.5187L20.4773 13.5096ZM20.4721 13.5051L19.294 12.8808L20.0774 11.4025L21.3436 12.496L20.4721 13.5051ZM17.9943 17.8255L19.1489 18.4924L19.1484 18.4933L17.9943 17.8255ZM17.9413 18.2225L16.6538 18.5691L16.6527 18.565L17.9413 18.2225ZM18.1849 18.5403L17.5208 19.6965L17.5183 19.6951L18.1849 18.5403ZM19.2833 18.2454L18.1269 17.5817L18.1287 17.5785L19.2833 18.2454ZM20.7108 15.7739L19.5562 15.107L19.557 15.1056L20.7108 15.7739ZM21.1339 15.5991L20.7889 16.887L20.7856 16.8861L21.1339 15.5991ZM22.0292 24.4373L21.9588 25.7687L21.9502 25.7683L21.9416 25.7677L22.0292 24.4373ZM22.5454 24.2448L23.4882 25.1876L23.4874 25.1884L22.5454 24.2448ZM23.4915 18.6943H24.8249V18.6944L23.4915 18.6943ZM23.4913 24.9307H22.158V24.9307L23.4913 24.9307ZM24.6241 25.4003L25.5678 26.3422L25.566 26.344L24.6241 25.4003ZM25.5702 18.6943H26.9036V18.6944L25.5702 18.6943ZM25.57 23.7173H24.2367V23.7172L25.57 23.7173ZM26.703 24.2443L27.6449 25.188L27.644 25.1889L26.703 24.2443ZM27.6491 18.6941H28.9825V18.6942L27.6491 18.6941ZM27.6487 22.5296H26.3153V22.5295L27.6487 22.5296ZM28.7807 22.9994L29.7235 23.9422L29.7226 23.9431L28.7807 22.9994ZM28.9746 22.5296H27.6413V22.5296L28.9746 22.5296ZM28.9748 14.7553H30.3082V14.7553L28.9748 14.7553ZM24.6966 10.0527V11.3861H22.9289L23.4146 9.68643L24.6966 10.0527ZM28.3117 25.2785C27.8207 25.2785 27.3824 25.1426 27.0186 24.9475L28.2788 22.5974C28.296 22.6066 28.3069 22.6102 28.3113 22.6113C28.315 22.6123 28.3145 22.6118 28.3117 22.6118V25.2785ZM28.982 23.7725V23.7753H26.3154V23.7725H28.982ZM28.982 23.7753C28.982 24.5066 28.695 25.2026 28.1758 25.7204L26.2927 23.8323C26.3022 23.8228 26.307 23.8147 26.3097 23.808C26.3125 23.8013 26.3154 23.7911 26.3154 23.7753H28.982ZM28.1771 25.7192C27.6597 26.2366 26.9649 26.5241 26.2332 26.5241V23.8574C26.2485 23.8574 26.2586 23.8547 26.2654 23.8518C26.2722 23.849 26.281 23.844 26.2915 23.8336L28.1771 25.7192ZM26.2332 26.5241C25.7358 26.5241 25.292 26.385 24.9241 26.1846L26.1994 23.8426C26.2168 23.8521 26.2278 23.8557 26.2321 23.8569C26.2359 23.8579 26.2356 23.8574 26.2332 23.8574V26.5241ZM26.8928 25.0914C26.8544 25.7477 26.5882 26.3842 26.0991 26.8738L24.2125 24.9892C24.2174 24.9842 24.2203 24.9799 24.2227 24.9744C24.2254 24.9684 24.2295 24.9561 24.2307 24.9358L26.8928 25.0914ZM26.0986 26.8743C25.5811 27.3918 24.8863 27.6793 24.1545 27.6793V25.0126C24.17 25.0126 24.1802 25.0098 24.187 25.007C24.1938 25.0041 24.2026 24.9991 24.213 24.9887L26.0986 26.8743ZM24.1545 27.6793C22.6825 27.6793 21.5013 26.524 21.4163 25.0924L24.0782 24.9343C24.0796 24.957 24.0889 24.9769 24.1053 24.9925C24.1133 25.0002 24.1214 25.0051 24.1285 25.008C24.1347 25.0105 24.1426 25.0126 24.1545 25.0126V27.6793ZM23.3812 26.1864C22.9505 26.4191 22.4399 26.5533 21.8944 26.5183L22.0654 23.8571C22.0654 23.8571 22.0682 23.8574 22.0753 23.8558C22.0828 23.854 22.0958 23.8498 22.1133 23.8404L23.3812 26.1864ZM21.8926 26.5182C20.4122 26.4211 19.327 25.1621 19.327 23.7317H21.9936C21.9936 23.7768 22.01 23.8115 22.0305 23.8341C22.0505 23.8562 22.0641 23.857 22.0671 23.8572L21.8926 26.5182ZM19.327 23.7317V17.3651H21.9936V23.7317H19.327ZM21.8151 18.0316L21.0901 19.2876L18.7806 17.9545L19.5055 16.6985L21.8151 18.0316ZM21.0913 19.2855C20.5761 20.1818 19.6171 20.733 18.5858 20.733V18.0663C18.6676 18.0663 18.7423 18.021 18.7794 17.9566L21.0913 19.2855ZM18.5858 20.733C18.0816 20.733 17.5853 20.6008 17.1467 20.3494L18.4724 18.0357C18.5083 18.0562 18.5477 18.0663 18.5858 18.0663V20.733ZM17.1408 20.3461C16.5422 19.999 16.1065 19.4342 15.9267 18.7616L18.503 18.0733C18.5018 18.0687 18.4985 18.0606 18.4921 18.0523C18.4857 18.044 18.4798 18.0399 18.4783 18.0391L17.1408 20.3461ZM15.9271 18.7631C15.7467 18.0909 15.8412 17.382 16.1892 16.781L18.4969 18.1172C18.4988 18.1139 18.5022 18.1063 18.5036 18.0955C18.505 18.0847 18.5038 18.0761 18.5026 18.0718L15.9271 18.7631ZM17.3431 16.1158C16.689 16.2872 16.1995 16.7636 16.1958 16.7697C16.1946 16.7718 16.1928 16.7749 16.1922 16.7758C16.1919 16.7764 16.1913 16.7774 16.1911 16.7777C16.191 16.7779 16.1907 16.7783 16.1907 16.7784C16.1905 16.7788 16.1905 16.7787 16.191 16.7778C16.192 16.7762 16.1935 16.7736 16.1957 16.7698C16.2001 16.7622 16.2066 16.7508 16.2153 16.7358C16.2327 16.7057 16.2582 16.6616 16.2908 16.6052C16.3559 16.4925 16.4491 16.3311 16.5614 16.1366C16.786 15.7476 17.087 15.2264 17.3925 14.6973C18.0046 13.6372 18.6321 12.5502 18.7031 12.4263L21.0164 13.7529C20.9427 13.8813 20.312 14.974 19.7019 16.0306C19.3964 16.5598 19.0953 17.0812 18.8707 17.4702C18.7583 17.6647 18.6651 17.8262 18.5999 17.939C18.5673 17.9955 18.5417 18.0398 18.5242 18.07C18.5155 18.0851 18.5087 18.0968 18.5041 18.1048C18.5018 18.1088 18.4999 18.1121 18.4985 18.1144C18.4979 18.1155 18.4971 18.1169 18.4963 18.1183C18.496 18.1187 18.4952 18.1202 18.4942 18.122C18.4935 18.1231 18.4916 18.1263 18.4904 18.1284C18.4867 18.1346 17.9971 18.611 17.3431 18.7824V16.1158ZM18.6454 12.539C18.6601 12.5066 18.7066 12.4023 18.7494 12.3061L21.1859 13.3897C21.1453 13.481 21.0938 13.5967 21.0741 13.6402L18.6454 12.539ZM18.7494 12.3061C18.7679 12.2644 18.7884 12.2112 18.8177 12.1286L21.3311 13.0197C21.2949 13.1218 21.247 13.2523 21.1859 13.3897L18.7494 12.3061ZM18.8176 12.1289C19.7206 9.57946 21.9936 7.96717 24.6966 7.96717V10.6338C23.1277 10.6338 21.8586 11.5302 21.3312 13.0193L18.8176 12.1289ZM24.6966 7.96717C28.3063 7.96717 31.0601 11.1148 31.0601 14.7551H28.3935C28.3935 12.3801 26.6343 10.6338 24.6966 10.6338V7.96717ZM31.0601 14.7551L31.0604 22.5294L28.3937 22.5295L28.3935 14.7551L31.0601 14.7551ZM31.0604 22.5294C31.0604 23.2606 30.7735 23.955 30.2568 24.4727L28.3694 22.5888C28.38 22.5783 28.3851 22.5693 28.388 22.5623C28.3909 22.5553 28.3937 22.545 28.3937 22.5294H31.0604ZM30.2559 24.4736C29.7383 24.9912 29.0435 25.2785 28.3116 25.2785V22.6118C28.3273 22.6118 28.3375 22.609 28.3443 22.6062C28.3511 22.6034 28.3599 22.5984 28.3703 22.588L30.2559 24.4736ZM27.6128 22.8096L27.6129 22.8096L29.0104 25.0807L29.0104 25.0807L27.6128 22.8096ZM24.6966 11.386C23.4289 11.386 22.4676 12.0641 22.0401 13.2709L19.5265 12.3804C20.3293 10.1145 22.2937 8.71931 24.6966 8.71931V11.386ZM22.0391 13.2738C21.997 13.3917 21.9423 13.5407 21.8732 13.6959L19.4371 12.6113C19.4636 12.5517 19.4909 12.4801 19.5275 12.3775L22.0391 13.2738ZM21.8729 13.6966C21.8119 13.8335 21.7607 13.9492 21.7216 14.0275C21.6973 14.0761 21.6579 14.1511 21.6009 14.2341C21.5431 14.3181 21.486 14.3816 21.4813 14.3869L19.4732 12.6323C19.4763 12.6287 19.4753 12.6299 19.4737 12.6317C19.4717 12.6341 19.4665 12.6401 19.4597 12.6484C19.4527 12.657 19.4438 12.6681 19.4338 12.6813C19.4237 12.6946 19.4135 12.7087 19.4032 12.7237C19.3823 12.7541 19.3662 12.7807 19.3548 12.8008C19.3441 12.8196 19.3376 12.8326 19.3361 12.8356C19.3346 12.8386 19.3356 12.8368 19.3401 12.8271C19.3445 12.8177 19.3507 12.8042 19.3596 12.7845C19.3684 12.7649 19.379 12.7413 19.3921 12.7122C19.4051 12.6831 19.42 12.6497 19.4374 12.6106L21.8729 13.6966ZM19.6058 14.5187L19.6006 14.5142L21.3436 12.496L21.3488 12.5005L19.6058 14.5187ZM21.6502 14.1295C21.4415 14.5232 20.8458 15.5544 19.1489 18.4924L16.8397 17.1587C18.5604 14.1794 19.1153 13.2178 19.294 12.8808L21.6502 14.1295ZM19.1484 18.4933C19.255 18.309 19.2848 18.0865 19.2299 17.88L16.6527 18.565C16.5262 18.089 16.5932 17.5848 16.8403 17.1577L19.1484 18.4933ZM19.2288 17.8759C19.1739 17.6721 19.0391 17.4939 18.8515 17.3856L17.5183 19.6951C17.09 19.4478 16.7812 19.0424 16.6538 18.5691L19.2288 17.8759ZM18.849 17.3842C18.6972 17.297 18.5496 17.2975 18.4477 17.325C18.3462 17.3523 18.216 17.4264 18.1269 17.5817L20.4397 18.9091C19.8586 19.9215 18.5306 20.2765 17.5208 19.6965L18.849 17.3842ZM18.1287 17.5785L19.5562 15.107L21.8653 16.4408L20.4379 18.9122L18.1287 17.5785ZM19.557 15.1056C19.9421 14.4407 20.7282 14.108 21.4822 14.3121L20.7856 16.8861C21.2088 17.0007 21.65 16.8126 21.8645 16.4422L19.557 15.1056ZM21.4789 14.3112C22.227 14.5116 22.7459 15.1894 22.7459 15.9624H20.0793C20.0793 16.3951 20.3697 16.7747 20.7889 16.887L21.4789 14.3112ZM22.7459 15.9624V23.7319H20.0793V15.9624H22.7459ZM22.7459 23.7319C22.7459 23.58 22.6897 23.4419 22.5973 23.3362C22.505 23.2306 22.3422 23.1217 22.1167 23.1068L21.9416 25.7677C20.8192 25.6939 20.0793 24.7161 20.0793 23.7319H22.7459ZM22.0996 23.1058C21.9421 23.0975 21.7496 23.1552 21.6034 23.3012L23.4874 25.1884C23.0664 25.6087 22.5083 25.7978 21.9588 25.7687L22.0996 23.1058ZM21.6026 23.302C21.476 23.4285 21.4057 23.6019 21.4057 23.7757H24.0724C24.0724 24.3053 23.8645 24.8113 23.4882 25.1876L21.6026 23.302ZM21.4057 23.7757V18.6943H24.0724V23.7757H21.4057ZM21.4057 18.6943C21.4057 17.7502 22.1711 16.9848 23.1153 16.9848V19.6514C23.6439 19.6514 24.0724 19.2229 24.0724 18.6943H21.4057ZM23.1153 16.9848C24.0589 16.9848 24.8249 17.7494 24.8249 18.6943H22.1582C22.1582 19.2232 22.5872 19.6514 23.1153 19.6514V16.9848ZM24.8249 18.6944L24.8246 24.9308L22.158 24.9307L22.1582 18.6943L24.8249 18.6944ZM24.8246 24.9307C24.8246 24.56 24.5252 24.2606 24.1545 24.2606V26.9273C23.0525 26.9273 22.158 26.0328 22.158 24.9307H24.8246ZM24.1545 24.2606C23.981 24.2606 23.8084 24.3305 23.6822 24.4565L25.566 26.344C25.1895 26.7197 24.6833 26.9273 24.1545 26.9273V24.2606ZM23.6804 24.4583C23.5543 24.5846 23.4844 24.7572 23.4844 24.9307H26.1511C26.1511 25.4595 25.9436 25.9657 25.5678 26.3422L23.6804 24.4583ZM23.4844 24.9307V18.6943H26.1511V24.9307H23.4844ZM23.4844 18.6943C23.4844 17.7507 24.249 16.9848 25.194 16.9848V19.6514C25.7229 19.6514 26.1511 19.2224 26.1511 18.6943H23.4844ZM25.194 16.9848C26.1376 16.9848 26.9036 17.7494 26.9036 18.6943H24.2369C24.2369 19.2232 24.6659 19.6514 25.194 19.6514V16.9848ZM26.9036 18.6944L26.9033 23.7173L24.2367 23.7172L24.2369 18.6943L26.9036 18.6944ZM26.9033 23.7173V23.7757H24.2367V23.7173H26.9033ZM26.9033 23.7757C26.9033 23.4041 26.6033 23.1053 26.2334 23.1053V25.772C25.1318 25.772 24.2367 24.8781 24.2367 23.7757H26.9033ZM26.2334 23.1053C26.0563 23.1053 25.8847 23.1774 25.7619 23.2997L27.644 25.1889C27.2696 25.5619 26.7654 25.772 26.2334 25.772V23.1053ZM25.7611 23.3006C25.6335 23.4279 25.5633 23.6018 25.5633 23.7755H28.23C28.23 24.3048 28.0222 24.8114 27.6449 25.188L25.7611 23.3006ZM25.5633 23.7755V18.6941H28.23V23.7755H25.5633ZM25.5633 18.6941C25.5633 17.7504 26.3279 16.9845 27.2729 16.9845V19.6512C27.8018 19.6512 28.23 19.2221 28.23 18.6941H25.5633ZM27.2729 16.9845C28.2165 16.9845 28.9825 17.7491 28.9825 18.6941H26.3158C26.3158 19.223 26.7448 19.6512 27.2729 19.6512V16.9845ZM28.9825 18.6942L28.982 22.5298L26.3153 22.5295L26.3158 18.6939L28.9825 18.6942ZM28.982 22.5296C28.982 22.1598 28.6832 21.8597 28.3116 21.8597V24.5264C27.2092 24.5264 26.3153 23.6313 26.3153 22.5296H28.982ZM28.3116 21.8597C28.1367 21.8597 27.9642 21.9306 27.8388 22.0557L29.7226 23.9431C29.3475 24.3175 28.8423 24.5264 28.3116 24.5264V21.8597ZM27.8379 22.0566C27.7109 22.1836 27.6413 22.3568 27.6413 22.5296H30.3079C30.3079 23.0577 30.1011 23.5646 29.7235 23.9422L27.8379 22.0566ZM27.6413 22.5296L27.6415 14.7552L30.3082 14.7553L30.3079 22.5297L27.6413 22.5296ZM27.6415 14.7553C27.6415 12.7774 26.2034 11.3861 24.6966 11.3861V8.71939C27.908 8.71939 30.3082 11.5477 30.3082 14.7553H27.6415ZM23.4146 9.68643L23.4146 9.68635L25.9786 10.4189L25.9786 10.419L23.4146 9.68643Z" fill="#4CAF4F" mask="url(#path-1-inside-1_16_1455)"/>
<path d="M11.9633 26.5144L11.8881 26.4744C11.8705 26.5059 11.8206 26.5945 11.7474 26.7263C11.7735 26.7394 11.7993 26.7516 11.8256 26.7615C11.8705 26.6806 11.9166 26.5984 11.9633 26.5144Z" fill="#4CAF4F" stroke="#4CAF4F" stroke-width="1.33333"/>
<path d="M27.8259 28.3763L27.8279 28.3773C27.8303 28.379 27.8322 28.3814 27.8347 28.3831C27.8316 28.381 27.8289 28.3784 27.8259 28.3763Z" fill="#4CAF4F" stroke="#4CAF4F" stroke-width="1.33333"/>
</svg>
