<svg width="48" height="49" viewBox="0 0 48 49" fill="none" xmlns="http://www.w3.org/2000/svg">
<path d="M9.75 8.30048H38.25C39.9076 8.30048 41.4968 8.95943 42.6689 10.1315C43.841 11.3036 44.5 12.8929 44.5 14.5505V34.0505C44.5 35.7081 43.841 37.2973 42.6689 38.4694C41.4968 39.6415 39.9076 40.3005 38.25 40.3005H9.75C8.0924 40.3005 6.50316 39.6415 5.33105 38.4694C4.15895 37.2973 3.5 35.7081 3.5 34.0505V14.5505C3.5 12.8929 4.15895 11.3036 5.33105 10.1315C6.50316 8.95943 8.0924 8.30048 9.75 8.30048ZM5.5 34.0505C5.5 35.1776 5.94809 36.2583 6.74512 37.0554C7.54215 37.8524 8.62283 38.3005 9.75 38.3005H38.25C39.3772 38.3005 40.4579 37.8524 41.2549 37.0554C42.0519 36.2583 42.5 35.1776 42.5 34.0505V19.3005H5.5V34.0505ZM31.5 29.3005H36C36.2652 29.3005 36.5195 29.4059 36.707 29.5934C36.8946 29.781 37 30.0353 37 30.3005C37 30.5657 36.8946 30.82 36.707 31.0075C36.5195 31.195 36.2652 31.3005 36 31.3005H31.5C31.2348 31.3005 30.9805 31.195 30.793 31.0075C30.6054 30.82 30.5 30.5657 30.5 30.3005C30.5 30.0353 30.6054 29.781 30.793 29.5934C30.9805 29.4059 31.2348 29.3005 31.5 29.3005ZM9.75 10.3005C8.62283 10.3005 7.54215 10.7486 6.74512 11.5456C5.94809 12.3426 5.5 13.4233 5.5 14.5505V17.3005H42.5V14.5505C42.5 13.4233 42.0519 12.3426 41.2549 11.5456C40.4579 10.7486 39.3772 10.3005 38.25 10.3005H9.75Z" fill="#4CAF4F" stroke="#4CAF4F"/>
</svg>
